<svg width="32" height="23" viewBox="0 0 32 23" fill="none" xmlns="http://www.w3.org/2000/svg">
<g id="Vector">
<path d="M28 0H4C2.93913 0 1.92172 0.421424 1.17157 1.17157C0.421424 1.92172 0 2.93913 0 4V19C0 20.0609 0.421424 21.0783 1.17157 21.8284C1.92172 22.5786 2.93913 23 4 23H28C29.0609 23 30.0783 22.5786 30.8284 21.8284C31.5786 21.0783 32 20.0609 32 19V4C32 2.93913 31.5786 1.92172 30.8284 1.17157C30.0783 0.421424 29.0609 0 28 0ZM30 19C30 19.5304 29.7893 20.0391 29.4142 20.4142C29.0391 20.7893 28.5304 21 28 21H4C3.46957 21 2.96086 20.7893 2.58578 20.4142C2.21071 20.0391 2 19.5304 2 19V4C2 3.46957 2.21071 2.96086 2.58578 2.58578C2.96086 2.21071 3.46957 2 4 2H28C28.5304 2 29.0391 2.21071 29.4142 2.58578C29.7893 2.96086 30 3.46957 30 4V19Z" fill="white"/>
<path d="M27.77 5.36999C27.6868 5.268 27.5842 5.18346 27.4682 5.1212C27.3522 5.05894 27.2251 5.02019 27.0941 5.00719C26.9631 4.99418 26.8308 5.00716 26.7048 5.04539C26.5788 5.08363 26.4617 5.14636 26.36 5.22999L16 13.71L5.63001 5.22999C5.53026 5.13672 5.41246 5.06485 5.28388 5.01884C5.15529 4.97283 5.01865 4.95366 4.88237 4.96248C4.74609 4.9713 4.61306 5.00794 4.49149 5.07014C4.36991 5.13235 4.26236 5.2188 4.17548 5.32416C4.08859 5.42952 4.02422 5.55156 3.9863 5.68275C3.94838 5.81395 3.93773 5.95152 3.95502 6.08699C3.97231 6.22246 4.01716 6.35294 4.08681 6.47041C4.15646 6.58788 4.24944 6.68983 4.36 6.76999L15.36 15.77C15.5399 15.9191 15.7663 16.0005 16 16C16.2302 15.9981 16.4527 15.9169 16.63 15.77L27.63 6.76999C27.8331 6.60212 27.9617 6.36093 27.9879 6.09878C28.0141 5.83664 27.9358 5.57474 27.77 5.36999Z" fill="white"/>
<path d="M23.7 13.29C23.5126 13.1037 23.2592 12.9992 22.995 12.9992C22.7308 12.9992 22.4774 13.1037 22.29 13.29C22.1963 13.383 22.1219 13.4936 22.0711 13.6154C22.0203 13.7373 21.9942 13.868 21.9942 14C21.9942 14.132 22.0203 14.2627 22.0711 14.3846C22.1219 14.5064 22.1963 14.617 22.29 14.71L26.29 18.71C26.3832 18.8026 26.4938 18.8759 26.6154 18.9257C26.7369 18.9756 26.8671 19.001 26.9985 19.0005C27.1299 19.0001 27.2599 18.9737 27.3812 18.923C27.5024 18.8723 27.6124 18.7982 27.705 18.705C27.7976 18.6118 27.8709 18.5012 27.9207 18.3796C27.9706 18.2581 27.996 18.1279 27.9956 17.9965C27.9951 17.8651 27.9688 17.735 27.918 17.6138C27.8673 17.4926 27.7932 17.3826 27.7 17.29L23.7 13.29Z" fill="white"/>
<path d="M8.33001 13.29L4.33001 17.29C4.1417 17.477 4.03538 17.7311 4.03445 17.9965C4.03351 18.2618 4.13803 18.5167 4.325 18.705C4.51198 18.8933 4.76611 18.9996 5.03147 19.0005C5.29683 19.0015 5.55171 18.897 5.74001 18.71L9.74001 14.71C9.83374 14.617 9.90813 14.5064 9.9589 14.3846C10.0097 14.2627 10.0358 14.132 10.0358 14C10.0358 13.868 10.0097 13.7373 9.9589 13.6154C9.90813 13.4936 9.83374 13.383 9.74001 13.29C9.55265 13.1037 9.2992 12.9992 9.03501 12.9992C8.77082 12.9992 8.51737 13.1037 8.33001 13.29Z" fill="white"/>
</g>
</svg>
