<svg width="21" height="27" viewBox="0 0 21 27" fill="none" xmlns="http://www.w3.org/2000/svg">
<g id="Vector">
<path d="M10.5 12.9231C11.8382 12.9231 12.9231 11.8382 12.9231 10.5C12.9231 9.16177 11.8382 8.07692 10.5 8.07692C9.16177 8.07692 8.07692 9.16177 8.07692 10.5C8.07692 11.8382 9.16177 12.9231 10.5 12.9231Z" fill="white"/>
<path d="M10.5 0C7.71523 0 5.04451 1.10625 3.07538 3.07538C1.10624 5.04452 0 7.71523 0 10.5C0 15.4915 5.41154 21.4846 9.95885 25.6361L10.5162 26.145L11.0573 25.62C16.0892 20.7738 21 15.6288 21 10.5C21 9.12112 20.7284 7.75574 20.2007 6.48182C19.6731 5.20791 18.8996 4.0504 17.9246 3.07538C16.9496 2.10037 15.7921 1.32694 14.5182 0.799262C13.2443 0.271588 11.8789 0 10.5 0ZM10.5 14.5385C9.70127 14.5385 8.92047 14.3016 8.25635 13.8579C7.59223 13.4141 7.07461 12.7834 6.76895 12.0455C6.46328 11.3075 6.38331 10.4955 6.53914 9.71213C6.69496 8.92874 7.07958 8.20918 7.64437 7.64439C8.20916 7.0796 8.92875 6.69496 9.71214 6.53913C10.4955 6.38331 11.3075 6.46327 12.0454 6.76893C12.7834 7.0746 13.4141 7.59222 13.8579 8.25634C14.3016 8.92046 14.5385 9.70127 14.5385 10.5C14.5385 11.5711 14.113 12.5983 13.3556 13.3556C12.5983 14.113 11.5711 14.5385 10.5 14.5385Z" fill="white"/>
</g>
</svg>
