<svg width="88" height="90" viewBox="0 0 88 90" fill="none" xmlns="http://www.w3.org/2000/svg">
<g id="Frame 25" clip-path="url(#clip0_55_475)">
<g id="Vector 1" filter="url(#filter0_d_55_475)">
<path d="M15.8095 43.3288L10.4341 37.7117C8.53382 35.726 8.59254 32.5789 10.5656 30.6654L36.6034 5.41409C38.5586 3.51793 41.6718 3.5355 43.6055 5.4536L68.8486 30.4932C70.8515 32.4799 70.8151 35.7292 68.7684 37.6707L53.0984 52.5342M53.0984 52.5342L72.5082 70.9452L81 79M53.0984 52.5342L48.2459 47.9315L43.3934 43.3288L37.1295 37.3872C35.2004 35.5574 32.1766 35.5574 30.2476 37.3872L7 59.4384" stroke="url(#paint0_linear_55_475)" stroke-width="7" stroke-linejoin="round" shape-rendering="crispEdges"/>
</g>
</g>
<defs>
<filter id="filter0_d_55_475" x="0.591339" y="0.503418" width="86.8173" height="89.0359" filterUnits="userSpaceOnUse" color-interpolation-filters="sRGB">
<feFlood flood-opacity="0" result="BackgroundImageFix"/>
<feColorMatrix in="SourceAlpha" type="matrix" values="0 0 0 0 0 0 0 0 0 0 0 0 0 0 0 0 0 0 127 0" result="hardAlpha"/>
<feOffset dy="4"/>
<feGaussianBlur stdDeviation="2"/>
<feComposite in2="hardAlpha" operator="out"/>
<feColorMatrix type="matrix" values="0 0 0 0 0 0 0 0 0 0 0 0 0 0 0 0 0 0 0.25 0"/>
<feBlend mode="normal" in2="BackgroundImageFix" result="effect1_dropShadow_55_475"/>
<feBlend mode="normal" in="SourceGraphic" in2="effect1_dropShadow_55_475" result="shape"/>
</filter>
<linearGradient id="paint0_linear_55_475" x1="44" y1="3.0548" x2="44" y2="79" gradientUnits="userSpaceOnUse">
<stop stop-color="#D7DFDA"/>
<stop offset="0.9999" stop-color="#D8E0DA" stop-opacity="0.983334"/>
<stop offset="1" stop-color="#F1F3F4" stop-opacity="0"/>
</linearGradient>
<clipPath id="clip0_55_475">
<rect width="88" height="90" fill="white"/>
</clipPath>
</defs>
</svg>
