<svg width="31" height="30" viewBox="0 0 31 30" fill="none" xmlns="http://www.w3.org/2000/svg">
<g id="Vector">
<path d="M29.954 13.3542C27.3885 7.3613 22.5992 2.59669 16.5931 0.0622154C16.3512 -0.0280797 16.0835 -0.0198138 15.8477 0.0852186C15.6118 0.190251 15.4266 0.383664 15.3319 0.623854C15.2803 0.744046 15.2531 0.873315 15.252 1.00411C15.2509 1.13491 15.2758 1.26462 15.3253 1.38568C15.3748 1.50675 15.448 1.61674 15.5404 1.70924C15.6329 1.80175 15.7429 1.87491 15.864 1.92447C21.4003 4.26345 25.8149 8.65682 28.1804 14.1818C28.2862 14.4161 28.4794 14.5998 28.7187 14.6937C28.958 14.7876 29.2245 14.7842 29.4614 14.6844C29.5826 14.6313 29.692 14.5543 29.7829 14.458C29.8737 14.3617 29.9443 14.2481 29.9903 14.1239C30.0363 13.9998 30.0567 13.8676 30.0505 13.7353C30.0443 13.6031 30.0115 13.4735 29.954 13.3542Z" fill="white"/>
<path d="M15.3516 7.24508C18.7074 8.6586 21.3846 11.3181 22.8203 14.6645C22.8965 14.8296 23.017 14.9704 23.1683 15.0712C23.3196 15.1721 23.4958 15.2291 23.6775 15.236C23.8106 15.235 23.9417 15.2047 24.0618 15.1473C24.2884 15.0363 24.4637 14.8426 24.5517 14.6061C24.6397 14.3696 24.6336 14.1084 24.5347 13.8763C22.9074 10.0769 19.8697 7.05696 16.061 5.45179C15.8264 5.36853 15.5691 5.37711 15.3406 5.47581C15.1121 5.57451 14.9295 5.75603 14.8293 5.98387C14.7367 6.22085 14.7393 6.48447 14.8367 6.71955C14.934 6.95463 15.1185 7.14295 15.3516 7.24508Z" fill="white"/>
<path d="M24.8401 18.9506C24.6265 18.7009 24.3613 18.5005 24.0627 18.3631C23.7642 18.2256 23.4395 18.1545 23.1109 18.1545C22.7823 18.1545 22.4576 18.2256 22.159 18.3631C21.8605 18.5005 21.5953 18.7009 21.3817 18.9506C20.5737 19.7487 19.7658 20.5567 18.9676 21.3745C18.9321 21.4271 18.8864 21.4721 18.8331 21.5066C18.7799 21.5412 18.7202 21.5647 18.6577 21.5758C18.5952 21.5868 18.5311 21.5851 18.4692 21.5709C18.4073 21.5566 18.349 21.53 18.2976 21.4927C17.7754 21.207 17.2138 20.9803 16.7113 20.665C14.4053 19.1705 12.3613 17.3063 10.6614 15.1473C9.77388 14.1009 9.04058 12.933 8.48384 11.6789C8.4233 11.575 8.4029 11.4524 8.4265 11.3344C8.45009 11.2164 8.51606 11.1112 8.61194 11.0385C9.4199 10.2502 10.2081 9.45211 11.0063 8.64415C11.2667 8.42778 11.4763 8.15671 11.6202 7.85018C11.7641 7.54365 11.8387 7.20918 11.8387 6.87057C11.8387 6.53196 11.7641 6.19751 11.6202 5.89098C11.4763 5.58445 11.2667 5.31336 11.0063 5.09699C10.3756 4.45654 9.74505 3.83579 9.1046 3.19534L7.13396 1.2247C6.91237 0.987288 6.64586 0.79623 6.34986 0.662609C6.05387 0.528989 5.73428 0.455457 5.40965 0.446289C5.08294 0.457058 4.76155 0.532242 4.46396 0.667511C4.16637 0.802779 3.89842 0.995473 3.67548 1.23455C2.85767 2.03266 2.07926 2.86032 1.24174 3.64857C0.504387 4.344 0.0633069 5.29678 0.0101081 6.30895C-0.0600825 7.96892 0.235952 9.62399 0.877193 11.1567C2.10616 14.343 3.87617 17.293 6.10922 19.8768C9.04596 23.4061 12.7048 26.2653 16.8394 28.2618C18.6736 29.2309 20.6842 29.8207 22.7513 29.996H23.1355C23.7666 30.0227 24.3957 29.9083 24.9769 29.6612C25.5581 29.414 26.0769 29.0403 26.4955 28.5673C27.1852 27.7889 27.9636 27.0795 28.7026 26.3405C28.9581 26.1231 29.1634 25.8528 29.3041 25.5483C29.4449 25.2437 29.5178 24.9122 29.5178 24.5767C29.5178 24.2413 29.4449 23.9098 29.3041 23.6052C29.1634 23.3007 28.9581 23.0304 28.7026 22.813C27.4283 21.5256 26.1408 20.2381 24.8401 18.9506ZM27.3231 24.9709L26.5841 25.7C26.0718 26.1927 25.5496 26.6853 25.0372 27.2667C24.8065 27.5349 24.516 27.7451 24.189 27.8803C23.8621 28.0155 23.508 28.0719 23.1553 28.0451H22.8794C21.0669 27.8886 19.3043 27.3692 17.6966 26.5178C13.8178 24.6315 10.3825 21.945 7.61675 18.6353C5.51436 16.2291 3.84724 13.475 2.69016 10.4966C2.14986 9.23424 1.89421 7.86842 1.94134 6.49615C1.96389 5.9689 2.18991 5.47094 2.57193 5.10686C3.08429 4.6142 3.55725 4.12153 4.07946 3.61902L5.06478 2.6337C5.09706 2.56706 5.14746 2.51087 5.2102 2.47155C5.27293 2.43223 5.34547 2.41138 5.41951 2.41138C5.49355 2.41138 5.56609 2.43223 5.62883 2.47155C5.69156 2.51087 5.74194 2.56706 5.77421 2.6337C6.20775 3.05738 6.63146 3.49092 7.05515 3.92446L9.62681 6.49615C9.99138 6.86071 9.97167 6.9297 9.62681 7.26471L9.29181 7.59971C8.62179 8.28944 7.94193 8.95945 7.2325 9.64918C6.86201 10.0011 6.61066 10.4599 6.5135 10.9616C6.41635 11.4632 6.47826 11.9827 6.69058 12.4475C7.31245 13.8757 8.14257 15.2039 9.15388 16.3888C10.9953 18.7052 13.2057 20.7026 15.6964 22.3007C16.0807 22.5371 16.4748 22.7342 16.8197 22.9017L17.3517 23.1678C17.728 23.3899 18.1562 23.5089 18.5932 23.5126C18.9335 23.5109 19.2696 23.4381 19.5801 23.299C19.8906 23.1599 20.1686 22.9574 20.3963 22.7047C21.1747 21.9065 21.963 21.1281 22.7907 20.3103C22.8749 20.2006 22.9925 20.1211 23.1257 20.0837C23.2635 20.117 23.3854 20.1971 23.4706 20.3103C24.7843 21.6241 26.0981 22.9149 27.4118 24.1826C27.6385 24.5275 27.668 24.6162 27.3231 24.9709Z" fill="white"/>
</g>
</svg>
